<?xml version="1.0" encoding="UTF-8"?>
<svg xmlns="http://www.w3.org/2000/svg" xmlns:xlink="http://www.w3.org/1999/xlink" width="854" height="480" viewBox="0 0 854 480">
<defs>
<g>
<g id="glyph-0-0">
<path d="M 0.734375 0 L 0.734375 -0.691406 L 1.972656 -0.691406 L 1.972656 -9.023438 L 0.664062 -9.023438 L 0.664062 -9.71875 L 3.496094 -9.71875 L 6.90625 -2.800781 L 10.320312 -9.71875 L 12.976562 -9.71875 L 12.976562 -9.023438 L 11.679688 -9.023438 L 11.679688 -0.691406 L 12.921875 -0.691406 L 12.921875 0 L 9.121094 0 L 9.121094 -0.691406 L 10.359375 -0.691406 L 10.359375 -8.203125 L 7.023438 -1.425781 L 6.105469 -1.425781 L 2.773438 -8.203125 L 2.773438 -0.691406 L 4.011719 -0.691406 L 4.011719 0 Z "/>
</g>
<g id="glyph-0-1">
<path d="M 3.292969 -0.691406 L 4.53125 -0.691406 L 4.53125 0 L 0.734375 0 L 0.734375 -0.691406 L 1.972656 -0.691406 L 1.972656 -9.023438 L 0.734375 -9.023438 L 0.734375 -9.71875 L 4.53125 -9.71875 L 4.53125 -9.023438 L 3.292969 -9.023438 Z "/>
</g>
<g id="glyph-0-2">
<path d="M 2.546875 0 L 2.546875 -0.691406 L 3.789062 -0.691406 L 3.789062 -8.945312 L 0.929688 -8.945312 L 0.929688 -7.429688 L 0.128906 -7.429688 L 0.128906 -9.71875 L 8.761719 -9.71875 L 8.761719 -7.429688 L 7.960938 -7.429688 L 7.960938 -8.945312 L 5.105469 -8.945312 L 5.105469 -0.691406 L 6.347656 -0.691406 L 6.347656 0 Z "/>
</g>
<g id="glyph-0-3">
<path d="M 1.238281 -0.46875 L 1.238281 -2.683594 L 1.984375 -2.675781 C 2.007812 -1.9375 2.222656 -1.390625 2.625 -1.039062 C 3.03125 -0.683594 3.648438 -0.507812 4.480469 -0.507812 C 5.25 -0.507812 5.839844 -0.660156 6.246094 -0.964844 C 6.652344 -1.273438 6.855469 -1.71875 6.855469 -2.304688 C 6.855469 -2.773438 6.734375 -3.132812 6.488281 -3.386719 C 6.242188 -3.636719 5.726562 -3.882812 4.933594 -4.121094 L 3.652344 -4.503906 C 2.722656 -4.789062 2.070312 -5.140625 1.6875 -5.558594 C 1.308594 -5.980469 1.121094 -6.558594 1.121094 -7.292969 C 1.121094 -8.117188 1.414062 -8.757812 2 -9.210938 C 2.585938 -9.667969 3.40625 -9.894531 4.464844 -9.894531 C 4.917969 -9.894531 5.414062 -9.847656 5.949219 -9.75 C 6.488281 -9.652344 7.0625 -9.507812 7.667969 -9.324219 L 7.667969 -7.253906 L 6.933594 -7.253906 C 6.859375 -7.9375 6.628906 -8.433594 6.246094 -8.742188 C 5.863281 -9.046875 5.277344 -9.199219 4.492188 -9.199219 C 3.804688 -9.199219 3.285156 -9.058594 2.925781 -8.78125 C 2.566406 -8.5 2.390625 -8.09375 2.390625 -7.558594 C 2.390625 -7.09375 2.523438 -6.730469 2.792969 -6.464844 C 3.0625 -6.199219 3.632812 -5.9375 4.503906 -5.675781 L 5.710938 -5.320312 C 6.589844 -5.054688 7.21875 -4.71875 7.59375 -4.304688 C 7.96875 -3.894531 8.15625 -3.347656 8.15625 -2.65625 C 8.15625 -1.714844 7.855469 -1.003906 7.253906 -0.527344 C 6.648438 -0.0507812 5.75 0.1875 4.558594 0.1875 C 4.023438 0.1875 3.480469 0.132812 2.925781 0.0273438 C 2.375 -0.0820312 1.808594 -0.246094 1.238281 -0.46875 Z "/>
</g>
<g id="glyph-0-4">
<path d="M 1.867188 -9.023438 L 0.625 -9.023438 L 0.625 -9.71875 L 4.425781 -9.71875 L 4.425781 -9.023438 L 3.183594 -9.023438 L 3.183594 -3.996094 C 3.183594 -2.757812 3.386719 -1.890625 3.792969 -1.398438 C 4.199219 -0.910156 4.898438 -0.664062 5.890625 -0.664062 C 6.886719 -0.664062 7.585938 -0.910156 7.992188 -1.398438 C 8.398438 -1.890625 8.601562 -2.757812 8.601562 -3.996094 L 8.601562 -9.023438 L 7.355469 -9.023438 L 7.355469 -9.71875 L 10.636719 -9.71875 L 10.636719 -9.023438 L 9.402344 -9.023438 L 9.402344 -3.867188 C 9.402344 -2.386719 9.117188 -1.339844 8.546875 -0.730469 C 7.980469 -0.117188 7.015625 0.1875 5.652344 0.1875 C 4.289062 0.1875 3.316406 -0.121094 2.738281 -0.734375 C 2.15625 -1.351562 1.867188 -2.394531 1.867188 -3.867188 Z "/>
</g>
<g id="glyph-0-5">
<path d="M 3.292969 -0.691406 L 5.242188 -0.691406 C 6.023438 -0.691406 6.59375 -0.859375 6.953125 -1.199219 C 7.3125 -1.535156 7.492188 -2.074219 7.492188 -2.8125 C 7.492188 -3.546875 7.3125 -4.082031 6.957031 -4.417969 C 6.597656 -4.753906 6.027344 -4.921875 5.242188 -4.921875 L 3.292969 -4.921875 L 3.292969 -0.691406 M 3.292969 -5.613281 L 4.949219 -5.613281 C 5.660156 -5.613281 6.179688 -5.75 6.507812 -6.023438 C 6.835938 -6.296875 7 -6.726562 7 -7.316406 C 7 -7.914062 6.835938 -8.34375 6.507812 -8.617188 C 6.179688 -8.886719 5.660156 -9.023438 4.949219 -9.023438 L 3.292969 -9.023438 L 3.292969 -5.613281 M 0.734375 0 L 0.734375 -0.691406 L 1.972656 -0.691406 L 1.972656 -9.023438 L 0.734375 -9.023438 L 0.734375 -9.71875 L 5.535156 -9.71875 C 6.515625 -9.71875 7.253906 -9.519531 7.75 -9.117188 C 8.246094 -8.714844 8.496094 -8.117188 8.496094 -7.316406 C 8.496094 -6.742188 8.324219 -6.28125 7.976562 -5.9375 C 7.632812 -5.59375 7.128906 -5.382812 6.464844 -5.304688 C 7.289062 -5.203125 7.914062 -4.9375 8.34375 -4.515625 C 8.769531 -4.09375 8.984375 -3.523438 8.984375 -2.8125 C 8.984375 -1.847656 8.679688 -1.140625 8.074219 -0.683594 C 7.464844 -0.226562 6.515625 0 5.226562 0 Z "/>
</g>
<g id="glyph-0-6">
<path d="M 0.734375 0 L 0.734375 -0.691406 L 1.972656 -0.691406 L 1.972656 -9.023438 L 0.734375 -9.023438 L 0.734375 -9.71875 L 4.53125 -9.71875 L 4.53125 -9.023438 L 3.292969 -9.023438 L 3.292969 -5.664062 L 8.332031 -5.664062 L 8.332031 -9.023438 L 7.097656 -9.023438 L 7.097656 -9.71875 L 10.890625 -9.71875 L 10.890625 -9.023438 L 9.65625 -9.023438 L 9.65625 -0.691406 L 10.890625 -0.691406 L 10.890625 0 L 7.097656 0 L 7.097656 -0.691406 L 8.332031 -0.691406 L 8.332031 -4.871094 L 3.292969 -4.871094 L 3.292969 -0.691406 L 4.53125 -0.691406 L 4.53125 0 Z "/>
</g>
</g>
</defs>
<g fill="rgb(0%, 0%, 0%)" fill-opacity="1">
<use xlink:href="#glyph-0-0" x="30" y="32.375977"/>
<use xlink:href="#glyph-0-1" x="44" y="32.375977"/>
<use xlink:href="#glyph-0-2" x="49" y="32.375977"/>
<use xlink:href="#glyph-0-3" x="58" y="32.375977"/>
<use xlink:href="#glyph-0-4" x="67" y="32.375977"/>
<use xlink:href="#glyph-0-5" x="78" y="32.375977"/>
<use xlink:href="#glyph-0-1" x="88" y="32.375977"/>
<use xlink:href="#glyph-0-3" x="93" y="32.375977"/>
<use xlink:href="#glyph-0-6" x="102" y="32.375977"/>
<use xlink:href="#glyph-0-1" x="114" y="32.375977"/>
</g>
</svg>
