<?xml version="1.0" encoding="UTF-8"?>
<svg xmlns="http://www.w3.org/2000/svg" xmlns:xlink="http://www.w3.org/1999/xlink" width="854" height="480" viewBox="0 0 854 480">
<defs>
<g>
<g id="glyph-0-0">
<path d="M -0.0195312 0 L 3.644531 -9.542969 L 5.007812 -9.542969 L 8.914062 0 L 7.472656 0 L 6.359375 -2.890625 L 2.371094 -2.890625 L 1.320312 0 L -0.0195312 0 M 2.734375 -3.917969 L 5.96875 -3.917969 L 4.972656 -6.5625 C 4.671875 -7.367188 4.445312 -8.023438 4.296875 -8.542969 C 4.175781 -7.929688 4.003906 -7.320312 3.78125 -6.71875 Z "/>
</g>
<g id="glyph-0-1">
<path d="M 0.976562 0 L 0.976562 -9.542969 L 2.238281 -9.542969 L 2.238281 -1.125 L 6.941406 -1.125 L 6.941406 0 Z "/>
</g>
<g id="glyph-0-2">
<path d="M 1.09375 0 L 1.09375 -9.542969 L 7.53125 -9.542969 L 7.53125 -8.417969 L 2.355469 -8.417969 L 2.355469 -5.460938 L 6.835938 -5.460938 L 6.835938 -4.335938 L 2.355469 -4.335938 L 2.355469 0 Z "/>
</g>
<g id="glyph-0-3">
<path d="M -0.203125 2.648438 L -0.203125 1.804688 L 7.566406 1.804688 L 7.566406 2.648438 Z "/>
</g>
<g id="glyph-0-4">
<path d="M 1.046875 0 L 1.046875 -9.542969 L 5.28125 -9.542969 C 6.128906 -9.542969 6.777344 -9.457031 7.21875 -9.289062 C 7.664062 -9.117188 8.015625 -8.8125 8.28125 -8.378906 C 8.546875 -7.945312 8.679688 -7.464844 8.679688 -6.941406 C 8.679688 -6.261719 8.460938 -5.691406 8.019531 -5.226562 C 7.582031 -4.761719 6.90625 -4.46875 5.988281 -4.34375 C 6.324219 -4.183594 6.578125 -4.023438 6.75 -3.867188 C 7.121094 -3.527344 7.46875 -3.105469 7.800781 -2.597656 L 9.460938 0 L 7.871094 0 L 6.609375 -1.984375 C 6.238281 -2.558594 5.933594 -2.996094 5.695312 -3.300781 C 5.457031 -3.605469 5.242188 -3.816406 5.054688 -3.9375 C 4.867188 -4.058594 4.675781 -4.144531 4.480469 -4.191406 C 4.335938 -4.222656 4.101562 -4.238281 3.777344 -4.238281 L 2.3125 -4.238281 L 2.3125 0 L 1.046875 0 M 2.3125 -5.332031 L 5.027344 -5.332031 C 5.601562 -5.332031 6.054688 -5.390625 6.378906 -5.511719 C 6.707031 -5.628906 6.953125 -5.820312 7.121094 -6.082031 C 7.292969 -6.347656 7.375 -6.632812 7.375 -6.941406 C 7.375 -7.390625 7.210938 -7.761719 6.882812 -8.054688 C 6.558594 -8.34375 6.039062 -8.488281 5.332031 -8.488281 L 2.3125 -8.488281 Z "/>
</g>
<g id="glyph-0-5">
<path d="M 0.644531 -4.648438 C 0.644531 -6.234375 1.070312 -7.472656 1.921875 -8.367188 C 2.769531 -9.265625 3.871094 -9.714844 5.214844 -9.714844 C 6.097656 -9.714844 6.890625 -9.503906 7.597656 -9.082031 C 8.304688 -8.660156 8.84375 -8.074219 9.214844 -7.320312 C 9.585938 -6.566406 9.773438 -5.714844 9.773438 -4.757812 C 9.773438 -3.792969 9.578125 -2.925781 9.1875 -2.160156 C 8.796875 -1.398438 8.242188 -0.820312 7.527344 -0.425781 C 6.808594 -0.0351562 6.039062 0.164062 5.207031 0.164062 C 4.308594 0.164062 3.507812 -0.0546875 2.800781 -0.488281 C 2.09375 -0.921875 1.554688 -1.515625 1.191406 -2.265625 C 0.828125 -3.015625 0.644531 -3.8125 0.644531 -4.648438 M 1.945312 -4.628906 C 1.945312 -3.480469 2.257812 -2.574219 2.875 -1.910156 C 3.492188 -1.25 4.269531 -0.917969 5.203125 -0.917969 C 6.152344 -0.917969 6.933594 -1.253906 7.546875 -1.921875 C 8.164062 -2.589844 8.46875 -3.539062 8.46875 -4.765625 C 8.46875 -5.542969 8.339844 -6.21875 8.078125 -6.800781 C 7.8125 -7.378906 7.429688 -7.828125 6.921875 -8.148438 C 6.417969 -8.46875 5.851562 -8.625 5.222656 -8.625 C 4.328125 -8.625 3.558594 -8.320312 2.914062 -7.703125 C 2.269531 -7.089844 1.945312 -6.066406 1.945312 -4.628906 Z "/>
</g>
<g id="glyph-0-6">
<path d="M 0.988281 0 L 0.988281 -9.542969 L 2.890625 -9.542969 L 5.148438 -2.785156 C 5.359375 -2.15625 5.511719 -1.6875 5.605469 -1.375 C 5.714844 -1.722656 5.882812 -2.230469 6.113281 -2.902344 L 8.398438 -9.542969 L 10.097656 -9.542969 L 10.097656 0 L 8.878906 0 L 8.878906 -7.988281 L 6.105469 0 L 4.96875 0 L 2.207031 -8.125 L 2.207031 0 Z "/>
</g>
<g id="glyph-0-7">
<path d="M 1.054688 0 L 1.054688 -9.542969 L 7.957031 -9.542969 L 7.957031 -8.417969 L 2.316406 -8.417969 L 2.316406 -5.496094 L 7.597656 -5.496094 L 7.597656 -4.375 L 2.316406 -4.375 L 2.316406 -1.125 L 8.175781 -1.125 L 8.175781 0 Z "/>
</g>
</g>
</defs>
<g fill="rgb(0%, 0%, 0%)" fill-opacity="1">
<use xlink:href="#glyph-0-0" x="30" y="32.070312"/>
<use xlink:href="#glyph-0-1" x="39" y="32.070312"/>
<use xlink:href="#glyph-0-2" x="46" y="32.070312"/>
<use xlink:href="#glyph-0-0" x="53" y="32.070312"/>
<use xlink:href="#glyph-0-3" x="62" y="32.070312"/>
<use xlink:href="#glyph-0-4" x="69" y="32.070312"/>
<use xlink:href="#glyph-0-5" x="79" y="32.070312"/>
<use xlink:href="#glyph-0-6" x="89" y="32.070312"/>
<use xlink:href="#glyph-0-7" x="100" y="32.070312"/>
<use xlink:href="#glyph-0-5" x="109" y="32.070312"/>
</g>
</svg>
