<?xml version="1.0" encoding="UTF-8"?>
<svg xmlns="http://www.w3.org/2000/svg" xmlns:xlink="http://www.w3.org/1999/xlink" width="854" height="480" viewBox="0 0 854 480">
<defs>
<g>
<g id="glyph-0-0">
<path d="M 0.976562 0 L 0.976562 -9.542969 L 2.238281 -9.542969 L 2.238281 -1.125 L 6.941406 -1.125 L 6.941406 0 Z "/>
</g>
<g id="glyph-0-1">
<path d="M 1.242188 0 L 1.242188 -9.542969 L 2.507812 -9.542969 L 2.507812 0 Z "/>
</g>
<g id="glyph-0-2">
<path d="M 1.015625 0 L 1.015625 -9.542969 L 2.3125 -9.542969 L 7.324219 -2.050781 L 7.324219 -9.542969 L 8.535156 -9.542969 L 8.535156 0 L 7.238281 0 L 2.226562 -7.5 L 2.226562 0 Z "/>
</g>
<g id="glyph-0-3">
<path d="M 7.839844 -3.347656 L 9.101562 -3.027344 C 8.835938 -1.988281 8.359375 -1.199219 7.671875 -0.652344 C 6.984375 -0.109375 6.144531 0.164062 5.148438 0.164062 C 4.121094 0.164062 3.285156 -0.046875 2.640625 -0.464844 C 1.996094 -0.882812 1.503906 -1.492188 1.167969 -2.285156 C 0.832031 -3.078125 0.664062 -3.933594 0.664062 -4.84375 C 0.664062 -5.835938 0.855469 -6.703125 1.234375 -7.445312 C 1.613281 -8.183594 2.152344 -8.746094 2.855469 -9.132812 C 3.554688 -9.515625 4.328125 -9.707031 5.167969 -9.707031 C 6.125 -9.707031 6.925781 -9.464844 7.578125 -8.976562 C 8.230469 -8.492188 8.683594 -7.808594 8.9375 -6.925781 L 7.695312 -6.632812 C 7.472656 -7.328125 7.152344 -7.835938 6.730469 -8.152344 C 6.3125 -8.46875 5.78125 -8.625 5.144531 -8.625 C 4.410156 -8.625 3.796875 -8.449219 3.304688 -8.097656 C 2.8125 -7.746094 2.464844 -7.273438 2.265625 -6.683594 C 2.066406 -6.089844 1.964844 -5.480469 1.964844 -4.851562 C 1.964844 -4.039062 2.085938 -3.328125 2.320312 -2.722656 C 2.558594 -2.117188 2.925781 -1.667969 3.425781 -1.367188 C 3.921875 -1.066406 4.464844 -0.917969 5.046875 -0.917969 C 5.753906 -0.917969 6.351562 -1.121094 6.84375 -1.53125 C 7.332031 -1.9375 7.664062 -2.542969 7.839844 -3.347656 Z "/>
</g>
<g id="glyph-0-4">
<path d="M 0.644531 -4.648438 C 0.644531 -6.234375 1.070312 -7.472656 1.921875 -8.367188 C 2.769531 -9.265625 3.871094 -9.714844 5.214844 -9.714844 C 6.097656 -9.714844 6.890625 -9.503906 7.597656 -9.082031 C 8.304688 -8.660156 8.84375 -8.074219 9.214844 -7.320312 C 9.585938 -6.566406 9.773438 -5.714844 9.773438 -4.757812 C 9.773438 -3.792969 9.578125 -2.925781 9.1875 -2.160156 C 8.796875 -1.398438 8.242188 -0.820312 7.527344 -0.425781 C 6.808594 -0.0351562 6.039062 0.164062 5.207031 0.164062 C 4.308594 0.164062 3.507812 -0.0546875 2.800781 -0.488281 C 2.09375 -0.921875 1.554688 -1.515625 1.191406 -2.265625 C 0.828125 -3.015625 0.644531 -3.8125 0.644531 -4.648438 M 1.945312 -4.628906 C 1.945312 -3.480469 2.257812 -2.574219 2.875 -1.910156 C 3.492188 -1.25 4.269531 -0.917969 5.203125 -0.917969 C 6.152344 -0.917969 6.933594 -1.253906 7.546875 -1.921875 C 8.164062 -2.589844 8.46875 -3.539062 8.46875 -4.765625 C 8.46875 -5.542969 8.339844 -6.21875 8.078125 -6.800781 C 7.8125 -7.378906 7.429688 -7.828125 6.921875 -8.148438 C 6.417969 -8.46875 5.851562 -8.625 5.222656 -8.625 C 4.328125 -8.625 3.558594 -8.320312 2.914062 -7.703125 C 2.269531 -7.089844 1.945312 -6.066406 1.945312 -4.628906 Z "/>
</g>
</g>
</defs>
<g fill="rgb(0%, 0%, 0%)" fill-opacity="1">
<use xlink:href="#glyph-0-0" x="30" y="32.070312"/>
<use xlink:href="#glyph-0-1" x="37" y="32.070312"/>
<use xlink:href="#glyph-0-2" x="41" y="32.070312"/>
<use xlink:href="#glyph-0-3" x="51" y="32.070312"/>
<use xlink:href="#glyph-0-4" x="61" y="32.070312"/>
<use xlink:href="#glyph-0-0" x="71" y="32.070312"/>
<use xlink:href="#glyph-0-2" x="78" y="32.070312"/>
</g>
</svg>
